PathFileType	4	(X/Y/Z)	C:/Users/opensim2020/Desktop/walking_exp_matlab/subject02_walking10_straight_03.trc	
DataRate	CameraRate	NumFrames	NumMarkers	Units	OrigDataRate	OrigDataStartFrame	OrigNumFrames	
100.00	100.00	8	43	mm	100.00	2257	270	
Frame#	Time	LFHD			RFHD			LBHD			RBHD			C7			T10			CLAV			STRN			RBAK			LSHO			LUPA			LELB			LFRM			LWRA			LWRB			LFIN			RSHO			RUPA			RELB			RFRM			RWRA			RWRB			RFIN			LASI			RASI			LPSI			RPSI			LTHI			LKNE			LTIB			LANK			LHEE			LTOE			RTHI			RKNE			RTIB			RANK			RHEE			RTOE			*39			*40			*41			*42			
		X1	Y1	Z1	X2	Y2	Z2	X3	Y3	Z3	X4	Y4	Z4	X5	Y5	Z5	X6	Y6	Z6	X7	Y7	Z7	X8	Y8	Z8	X9	Y9	Z9	X10	Y10	Z10	X11	Y11	Z11	X12	Y12	Z12	X13	Y13	Z13	X14	Y14	Z14	X15	Y15	Z15	X16	Y16	Z16	X17	Y17	Z17	X18	Y18	Z18	X19	Y19	Z19	X20	Y20	Z20	X21	Y21	Z21	X22	Y22	Z22	X23	Y23	Z23	X24	Y24	Z24	X25	Y25	Z25	X26	Y26	Z26	X27	Y27	Z27	X28	Y28	Z28	X29	Y29	Z29	X30	Y30	Z30	X31	Y31	Z31	X32	Y32	Z32	X33	Y33	Z33	X34	Y34	Z34	X35	Y35	Z35	X36	Y36	Z36	X37	Y37	Z37	X38	Y38	Z38	X39	Y39	Z39	X40	Y40	Z40	X41	Y41	Z41	X42	Y42	Z42	X43	Y43	Z43	

68	0.670	1474.36255	-532.71558	1744.08655	1617.18530	-534.27393	1720.60974	1462.56934	-663.21747	1671.44690	1603.27869	-678.33441	1646.84973	1539.67725	-722.30536	1529.06860	1553.64111	-776.97168	1253.24548	1517.25171	-586.79413	1459.90881	1524.53418	-534.89600	1288.15625	1612.19421	-776.93958	1356.37561	1353.90698	-667.75793	1502.38513	1277.23096	-710.60754	1304.09399	1272.14783	-734.89984	1165.56006	1258.36218	-748.81366	1035.10950	1284.68774	-713.41895	900.75702	1254.13318	-759.76599	911.64178	1253.40088	-753.52661	843.54218	1719.04065	-629.71295	1496.17847	1809.76904	-644.81378	1305.86353	1827.75940	-624.29230	1160.64014	1846.29919	-586.88000	1047.04248	1826.46790	-530.68054	924.17853	1861.73657	-575.10272	918.15289	1864.72119	-532.02423	859.79126	1404.66638	-556.93231	992.64337	1657.99683	-538.21295	980.52698	1498.44116	-758.71100	1034.12244	1614.16150	-754.66980	1036.11743	1332.61145	-582.70148	684.04767	1348.87012	-572.32397	494.22784	1371.21582	-694.34918	352.84149	1408.55664	-778.32538	147.72113	1470.07312	-804.56439	129.93925	1356.35254	-666.21582	55.65180	1719.05396	-606.98486	672.40375	1670.12415	-607.87634	463.04211	1669.89294	-648.80286	277.92767	1623.53796	-666.64063	86.97086	1565.98132	-700.73743	33.48745	1642.27380	-514.95441	34.97325	1566.06641	-633.26880	1808.20654	-3357.49097	2845.82788	1034.27808						 
69	0.680	1474.25293	-524.98792	1744.38965	1616.85425	-526.17059	1721.26184	1462.96753	-655.93915	1671.53809	1603.88000	-670.26556	1647.43677	1540.82166	-714.70343	1529.65869	1554.93469	-770.13733	1254.03271	1518.03345	-579.44458	1460.22559	1525.89661	-527.82617	1288.44409	1613.72876	-769.50604	1357.18030	1354.96826	-661.22095	1502.45825	1278.69543	-705.70453	1304.56348	1273.62585	-731.01483	1166.15894	1259.80884	-745.66266	1035.55505	1284.86646	-710.57123	901.62689	1255.59180	-757.16864	912.40851	1254.05713	-751.45697	844.55975	1719.85583	-621.16168	1497.15747	1811.05518	-635.25208	1306.87805	1828.99182	-613.82526	1161.61462	1847.54932	-574.65204	1048.70569	1826.65247	-517.60010	926.39856	1862.36145	-561.48602	919.79803	1864.89294	-517.70599	862.06403	1406.56885	-549.75122	993.80853	1660.36462	-531.48291	980.77509	1498.71228	-752.12805	1035.18860	1614.43176	-748.63422	1036.51465	1333.15796	-572.79419	685.48193	1350.03101	-559.77747	495.35895	1371.51733	-676.85828	349.05920	1408.12024	-752.98425	140.60333	1469.39087	-778.84424	121.51447	1355.97925	-637.01288	53.55489	1719.24634	-603.89081	672.16833	1670.43909	-606.01819	463.20929	1669.85986	-648.19489	278.00861	1623.34436	-666.50092	87.01891	1565.99841	-700.74536	33.80914	1642.36853	-514.83154	34.97320	1565.85669	-625.38702	1808.65930	-3360.25732	2845.18066	1034.24756						 
70	0.690	1473.46899	-517.73657	1744.12683	1616.40369	-518.05670	1721.76233	1463.35034	-648.53925	1671.53027	1604.12329	-662.43323	1647.93091	1541.89575	-707.18872	1530.16418	1556.06409	-763.30914	1254.74231	1518.72717	-572.17236	1460.39905	1527.02283	-521.04358	1288.43005	1615.53711	-761.64099	1358.06152	1355.94165	-654.64868	1502.33655	1280.16431	-701.08948	1305.14771	1275.06506	-726.88153	1166.58398	1260.99854	-742.87665	1036.29004	1285.05261	-707.83429	902.16022	1256.76709	-755.13080	912.97516	1254.26135	-748.81268	845.41949	1720.47583	-612.93372	1498.19275	1812.35974	-625.44141	1308.11084	1830.65979	-603.03516	1162.89734	1848.31458	-562.85785	1050.11426	1826.76489	-504.42596	928.48199	1862.92065	-547.84698	921.38879	1864.98975	-503.26440	864.02863	1408.16785	-542.55621	994.78680	1662.23145	-525.55933	980.38196	1498.94202	-745.58722	1036.10498	1614.62036	-742.62292	1036.75720	1333.60535	-563.53882	687.21753	1351.20337	-547.61938	496.29858	1371.87390	-659.44171	345.12701	1407.34277	-727.31995	133.55122	1468.48682	-752.55017	112.85482	1355.22998	-607.32941	51.82487	1719.32092	-600.75739	671.95648	1670.24548	-604.32397	462.79028	1669.76416	-647.35962	278.10330	1623.17383	-666.29419	87.12630	1565.82715	-700.72333	33.91801	1642.54333	-514.97638	34.89539	1565.62195	-617.40045	1809.20728	-3357.37378	2845.92188	1034.10413						 
71	0.700	1472.84851	-510.17383	1743.78113	1615.83899	-509.90778	1722.09644	1463.61658	-641.26563	1671.52380	1604.53076	-654.46991	1648.48730	1542.96887	-699.86517	1530.81470	1557.04260	-756.46844	1255.35327	1519.33167	-564.89240	1460.49268	1528.23401	-514.12317	1288.44922	1617.47644	-754.85620	1359.23877	1356.85181	-647.97351	1502.12439	1281.36743	-696.39374	1305.17444	1276.46143	-722.73077	1166.87903	1261.86121	-739.82599	1036.60229	1285.13770	-704.40405	902.38959	1258.14771	-752.09595	913.45886	1254.57361	-746.08636	846.08710	1721.17664	-604.85834	1498.86267	1813.53064	-615.91003	1308.87891	1831.95740	-592.34595	1163.89417	1849.23755	-550.59125	1051.55627	1826.91626	-491.07770	930.68512	1863.29919	-534.22943	922.88867	1864.85425	-488.85339	866.17377	1409.56653	-535.31250	995.58490	1663.83594	-519.89093	979.80713	1499.12915	-739.04199	1036.80432	1614.75195	-736.57672	1036.94995	1333.99463	-554.06116	688.52765	1352.47034	-536.02319	497.11697	1372.19507	-642.14740	341.08640	1406.27026	-701.08344	126.32844	1467.14209	-725.69672	104.53768	1354.18530	-577.36359	50.50388	1719.50171	-597.55902	671.84625	1670.01428	-602.35950	462.29904	1669.73572	-646.22052	278.18701	1623.01428	-666.08044	87.22639	1565.63281	-700.32947	33.68255	1642.64868	-514.95032	34.88770	1564.98657	-609.47174	1809.35950	-3357.33325	2845.85254	1034.30481						 
72	0.710	1472.07861	-502.64517	1743.47021	1615.08179	-501.57315	1722.42297	1463.59680	-635.09521	1671.41357	1605.14722	-646.40265	1649.02673	1543.85095	-692.30896	1531.08191	1557.99976	-749.73163	1255.86084	1519.91479	-557.63684	1460.49011	1529.54004	-507.01065	1288.42603	1618.60974	-747.44257	1359.65100	1357.71265	-641.32458	1501.78430	1282.64465	-691.45361	1305.14600	1277.68225	-718.56610	1167.14929	1262.93860	-736.54504	1036.97656	1285.43994	-701.00879	902.79907	1258.98450	-749.74481	914.01996	1254.76855	-743.20984	846.53625	1721.76831	-596.60345	1499.62646	1814.71863	-606.20764	1309.92126	1833.19043	-581.73083	1164.82837	1849.60620	-538.82080	1052.79077	1826.76306	-477.78970	932.64575	1863.57983	-520.66840	924.37476	1864.51392	-474.78625	867.94116	1410.69263	-528.13605	996.17114	1665.30933	-514.12415	979.18030	1499.30359	-732.47662	1037.31860	1614.78381	-730.49127	1037.03259	1334.41626	-544.82727	689.97412	1353.66760	-524.78845	497.68234	1372.38281	-624.91339	336.88953	1404.93640	-674.36084	119.31645	1465.51880	-698.29242	96.46722	1353.15076	-547.08942	49.28379	1719.38281	-593.46753	670.96594	1670.18933	-600.02740	462.31339	1669.59045	-644.91486	278.27097	1622.84448	-665.84937	87.27689	1565.46057	-700.22375	33.78909	1642.82861	-514.91785	35.04969	1564.66919	-601.31250	1809.74707	-3360.24878	2845.16431	1034.16516						 
73	0.720	1471.32288	-495.15573	1743.04517	1614.28552	-493.46539	1722.54932	1463.56982	-627.21686	1671.12769	1605.11853	-638.68268	1649.40015	1544.66504	-684.82574	1531.30676	1558.77576	-742.92383	1256.23914	1520.52917	-550.42023	1460.36609	1530.26929	-500.56116	1288.00537	1620.10718	-739.96698	1360.33398	1358.43726	-634.61566	1501.36829	1284.11487	-685.70514	1304.82690	1279.11218	-713.80170	1167.21777	1264.56091	-732.02515	1037.00232	1284.59460	-698.09998	902.47577	1259.76245	-746.98865	914.59631	1254.97961	-739.97003	847.23413	1722.28577	-588.35095	1500.26648	1815.73145	-596.62677	1310.62939	1834.27856	-571.07983	1165.66687	1850.21423	-526.79358	1053.95178	1826.54211	-464.57553	934.72192	1863.69470	-507.11087	925.77246	1864.15173	-460.38281	870.08069	1411.55920	-521.03589	996.63574	1666.39087	-508.61472	978.36932	1499.37354	-725.86896	1037.54456	1614.82788	-724.46289	1037.06689	1334.75452	-535.64215	691.20795	1354.88245	-514.01367	498.14328	1372.43103	-607.56372	332.50635	1403.32581	-647.40149	112.72411	1463.76611	-670.68829	88.78132	1351.68018	-517.04779	48.28534	1719.18933	-589.91815	670.96039	1670.14600	-597.69391	462.09894	1669.50061	-643.51862	278.30347	1622.68494	-665.62769	87.43056	1565.25269	-700.18628	33.87554	1642.89331	-514.91052	35.00579	1563.98303	-593.30389	1810.01062	-3357.40259	2845.90381	1034.16394						 
74	0.730	1470.42212	-487.74280	1742.48206	1613.46521	-485.39679	1722.62671	1463.82727	-619.05182	1670.75317	1605.59546	-630.65985	1649.79785	1545.36865	-677.36328	1531.42676	1559.54529	-736.17078	1256.54407	1521.00647	-543.16901	1460.15454	1531.55103	-493.31226	1287.86365	1620.83667	-732.27826	1360.33264	1359.12939	-627.86499	1500.89929	1285.18713	-680.56085	1304.70593	1280.29700	-708.95959	1167.12122	1265.42981	-728.36804	1037.20459	1284.73999	-694.34949	902.76947	1260.65491	-744.11017	914.79810	1254.94702	-737.16547	847.77112	1722.69495	-580.22284	1500.57080	1816.65881	-587.27747	1311.09033	1835.28369	-560.39886	1166.41077	1850.57031	-514.83862	1055.17346	1826.35071	-451.32422	936.69788	1863.74268	-493.58475	927.15057	1863.72498	-446.22836	872.03558	1412.20618	-513.90308	996.89838	1667.62427	-502.51956	977.86737	1499.50989	-719.21783	1037.63574	1614.79944	-718.28986	1036.91724	1335.05200	-526.56262	692.03564	1356.06165	-503.64523	498.28357	1372.29199	-590.16742	328.07220	1401.36060	-620.13361	106.45911	1461.40759	-642.85413	81.46752	1350.17944	-486.77759	47.55663	1720.17773	-586.92578	670.76868	1670.02441	-595.28821	461.80859	1669.19727	-642.40808	278.34436	1622.47900	-665.40955	87.56004	1565.05713	-700.02362	33.98596	1642.99243	-514.91663	34.99820	1563.06152	-585.32806	1809.90247	-3360.41211	2845.21265	1034.13147						 
75	0.740	1469.36548	-480.36746	1741.77112	1612.70264	-477.57468	1722.59265	1463.46533	-613.14166	1670.45508	1605.44385	-622.94916	1649.99683	1545.97864	-669.96008	1531.45129	1560.13623	-729.40216	1256.65186	1521.39783	-535.92889	1459.86548	1532.46460	-486.43918	1287.44287	1622.15515	-725.57019	1360.92761	1359.68188	-621.05762	1500.30066	1286.55139	-674.56335	1304.34167	1281.58435	-703.84064	1166.96729	1266.58777	-723.96893	1037.05151	1284.88623	-689.72455	902.75189	1261.39355	-740.55756	915.02570	1254.94849	-733.72473	847.99896	1722.99792	-572.33575	1501.07397	1817.45483	-577.71515	1311.79871	1836.14441	-549.74854	1167.08386	1850.88599	-502.84561	1056.24951	1825.79626	-438.47809	938.54559	1863.65356	-480.11478	928.43542	1862.99426	-432.20349	873.80975	1412.90710	-506.69949	997.21881	1668.54688	-496.64789	977.32422	1499.56995	-712.51288	1037.56360	1614.71252	-712.11841	1036.74597	1336.08350	-517.32526	692.92358	1357.21216	-493.58862	498.17606	1371.96667	-572.73840	323.73041	1399.19861	-592.76062	100.85655	1459.25928	-614.43994	74.81400	1348.63501	-456.58453	47.39381	1719.37854	-581.99622	670.28333	1669.83655	-592.80994	461.54648	1669.06970	-640.98047	278.36853	1622.24890	-665.14972	87.69879	1564.81616	-700.10370	34.22477	1643.01111	-514.95319	34.80653	1562.35339	-577.17102	1809.99048	-3357.45923	2845.84473	1034.28113						 
